<?xml version="1.0" encoding="utf-8"?>
<!-- Generator: Adobe Illustrator 27.5.0, SVG Export Plug-In . SVG Version: 6.00 Build 0)  -->
<svg version="1.1" xmlns="http://www.w3.org/2000/svg" xmlns:xlink="http://www.w3.org/1999/xlink" x="0px" y="0px"
	 viewBox="0 0 3000 2000" style="enable-background:new 0 0 3000 2000;" xml:space="preserve">
<g id="BACKGROUND">
	<rect style="fill:#FFFFFF;" width="3000" height="2000"/>
</g>
<g id="OBJECTS">
	<g>
		<path style="fill:#06193F;" d="M2326.031,978.264c-0.008,0.022,0.011-0.002,0.011-0.002c-0.004-0.045-0.013-0.083-0.018-0.128
			C2326.029,978.179,2326.028,978.219,2326.031,978.264z"/>
		<path style="fill:#06193F;" d="M2326.077,978.33c-0.012-0.022-0.023-0.045-0.035-0.068c0,0-0.019,0.024-0.019,0.024
			C2326.042,978.3,2326.059,978.315,2326.077,978.33z"/>
		<path style="fill:#06193F;" d="M2720.947,1053.033l-164.924-16.877l52.502-60.27l-53.773-72.813
			c1.645-0.944,3.259-1.935,4.845-2.965l90.757,92.219l19.863-83.587l-80.261-38.906c1.073-1.642,2.105-3.312,3.085-5.017
			l121.854,39.042l-21.258-83.243l-87.402,2.794c0.194-2.025,0.328-4.068,0.403-6.126l124.293-21.752l-57.508-63.829l-74.538,42.211
			c-0.818-1.973-1.693-3.915-2.627-5.824l98.529-75.929l-80.583-29.793l-45.654,70.882c-1.697-1.38-3.436-2.711-5.22-3.983
			l51.414-111.841l-85.198,11.069l-7.426,83.328c-2.163-0.396-4.351-0.72-6.559-0.978l-6.422-122.394l-70.296,49.395l32.242,77.458
			c-2.09,0.689-4.15,1.441-6.178,2.257l-62.743-105.69l-39.289,76.405l65.392,54.305c-1.465,1.553-2.882,3.152-4.249,4.793
			l-105.691-65.051l0.718,85.911l84.71,18.03c-0.537,1.977-1.021,3.976-1.442,5.999l-75.181-5.151l-32.301-9.307l-17.526-49.629
			l-140.887-43.861l-26.583,122.28l138.229,25.253l43.861-39.874l25.469,67.429l85.122-23.89c0.422,1.935,0.895,3.851,1.423,5.744
			l-116.751,51.427l71.112,48.212l65.412-61.791c1.21,1.466,2.463,2.895,3.75,4.292l-80.443,101.004l85.372,9.642l29.518-86.026
			c1.699,0.747,3.422,1.45,5.168,2.106l-24.456,127.685l26.607-10.346l-1.064,8.921l-193.708,16.651l-5.814,17.441h195.454
			l-2.949,24.719h-19.848v12.917h18.307l-1.45,12.155h-20.027v11.962h18.599l-4.638,38.872h-24.76v13.966h23.094l-8.904,74.623
			h-0.22v1.845l-32.337,271.012l10.851,1.295l27.235-228.25h34.847l-8.614,220.199l10.92,0.427l8.63-220.626h24.382l8.63,220.626
			l10.92-0.427l-8.614-220.199h34.847l27.235,228.25l10.851-1.295l-41.462-347.48h18.232v-13.966h-19.899l-4.638-38.872h13.738
			v-11.962h-15.165l-1.45-12.155h13.031v-12.917h-14.572l-2.95-24.719h180.815L2720.947,1053.033z M2591.677,813.419
			c0,41.127-28.133,75.683-66.205,85.474l-3.72-31.173h11.542l-14.328-141.187C2560.295,733.875,2591.677,769.981,2591.677,813.419z
			 M2518.951,1070.474h15.99l2.949,24.719h-17.972L2518.951,1070.474z M2517.921,927.84l12.613,105.707l-13.08-1.339l-0.906-23.149
			l6.146-2.39l-8.364-54.318l-1.412-36.083c0.486-0.044,0.972-0.088,1.456-0.139L2517.921,927.84z M2514.713,900.953
			c-0.791,0.101-1.585,0.19-2.382,0.27l-1.178-30.106L2514.713,900.953z M2504.241,1013.846l1.534-0.597l0.776,19.833l-3.073,0.264
			L2504.241,1013.846z M2502.026,1070.474h5.988l0.967,24.719h-7.921L2502.026,1070.474z M2509.486,1108.11l0.476,12.155h-9.883
			l0.476-12.155H2509.486z M2515.416,1259.688h-20.791l2.919-74.623h14.953L2515.416,1259.688z M2498.09,1171.099l1.521-38.872
			h10.819l1.521,38.872H2498.09z M2490.123,1095.193h-17.972l2.949-24.719h15.99L2490.123,1095.193z M2498.888,871.118
			l-1.188,30.361c-0.807-0.052-1.612-0.114-2.413-0.187L2498.888,871.118z M2492.505,1034.289l-13.223,1.137l1.486-12.453
			l12.368-4.809L2492.505,1034.289z M2486.114,726.871l-10.661,102.974l-60.264-17.364
			C2415.631,770.086,2445.961,734.859,2486.114,726.871z M2416.422,828.236l57.914,12.396l-2.804,27.088h16.755l-3.807,31.903
			C2449.587,891.989,2422.421,863.713,2416.422,828.236z M2470.61,1108.11h19.008l-0.475,12.155h-19.983L2470.61,1108.11z
			 M2467.732,1132.227h20.942l-1.521,38.872h-24.06L2467.732,1132.227z M2482.398,1292.673h-33.811l2.394-20.068h32.201
			L2482.398,1292.673z M2483.688,1259.688h-31.165l8.904-74.623h25.18L2483.688,1259.688z M2493.335,1292.673l0.785-20.068h21.801
			l0.785,20.068H2493.335z M2527.643,1292.673l-0.785-20.068h32.201l2.395,20.068H2527.643z M2557.517,1259.688h-31.165
			l-2.919-74.623h25.18L2557.517,1259.688z M2546.947,1171.099h-24.06l-1.521-38.872h20.942L2546.947,1171.099z M2520.898,1120.265
			l-0.475-12.155h19.008l1.45,12.155H2520.898z M2541.676,1034.688l-5.594-46.884l14.475,47.793L2541.676,1034.688z"/>
	</g>
	<g>
		<path style="fill:#06193F;" d="M857.088,452.66c-0.599,0.305-1.455,0.914-2.51,1.809c-0.993,0.947-2.281,2.105-3.556,3.643
			c-2.634,3.004-5.635,7.216-8.279,12.392c-2.66,5.161-4.956,11.283-6.32,17.843c-0.386,1.629-0.612,3.304-0.891,4.973
			c-0.192,1.682-0.435,3.365-0.515,5.062l-0.019,0.318c-0.001,0.043,0.003,0.033,0.004,0.052l0.011,0.077l0.022,0.151l0.057,0.369
			c0.006,0.063,0.028,0.158,0.021,0.207l-0.129-0.025c-0.096-0.021-0.189-0.043-0.343-0.087l-0.227-0.066l-0.121-0.037l-0.063-0.019
			l-0.241-0.102c-0.742-0.316-1.479-0.631-2.212-0.944c-1.476-0.598-2.93-1.191-4.38-1.713c-2.888-1.075-5.71-1.99-8.398-2.752
			c-10.757-3.087-19.222-3.77-21.491-3.604c-2.922,0.256-3.852,0.754-3.269,1.378c0.584,0.633,2.686,1.368,5.846,2.336
			c6.32,1.912,16.876,4.946,27.95,9.985c0.697,0.302,1.384,0.637,2.081,0.96l1.047,0.489l2.002,1.016
			c1.409,0.721,2.823,1.444,4.242,2.17l2.141,1.114l1.069,0.556l0.534,0.277c0.157,0.056,0.434,0.321,0.365-0.015
			c0.111-3.246,0.223-6.505,0.334-9.766l0.132-1.855c0.029-0.385,0.034-0.772,0.085-1.155l0.247-2.302
			c0.721-6.128,2.214-12.096,4.073-17.459c3.746-10.757,9.094-18.873,11.104-23.106C858.49,452.694,858.292,452.051,857.088,452.66z
			"/>
		<path style="fill:#06193F;" d="M903.93,482.97c-1.319,1.75-3.196,5.536-4.996,10.771c-1.789,5.231-3.381,11.95-4.127,19.354
			c-0.391,3.698-0.567,7.566-0.487,11.479c0,0.978,0.045,1.959,0.096,2.942l0.068,1.389c0.014-0.016,0.028,0.064,0.043,0.098
			c0.057,0.184,0.133,0.445,0.222,0.801c-0.085,0.005-0.223-0.047-0.389-0.096l-0.281-0.098l-0.163-0.06l-0.087-0.033l-0.028-0.012
			l-0.106-0.06l-0.212-0.12c-2.261-1.276-4.509-2.472-6.702-3.603c-4.392-2.25-8.582-4.193-12.32-5.784
			c-7.479-3.183-13.126-4.975-14.965-5.264c-3.294-0.489-4.165-0.09-3.225,0.924c0.94,1.018,3.698,2.638,7.624,4.798
			c3.927,2.159,9.024,4.862,14.659,8.03c2.816,1.587,5.769,3.286,8.783,5.078c0.752,0.451,1.51,0.904,2.272,1.361l1.628,0.991
			c0.772,0.485,1.546,0.971,2.321,1.458c3.069,1.954,6.165,3.926,9.272,5.904c-0.274-2.824-0.591-5.626-0.837-8.422l-0.376-4.165
			c-0.059-0.688-0.141-1.386-0.153-2.034l-0.052-0.999c-0.172-2.662-0.19-5.317-0.181-7.928c0.036-5.224,0.465-10.267,1.033-14.87
			c0.572-4.604,1.316-8.766,1.956-12.274c0.685-3.492,1.191-6.36,1.384-8.347C905.847,481.421,905.223,481.201,903.93,482.97z"/>
		<path style="fill:#06193F;" d="M1068.927,465.118c-0.52,0.406-1.217,1.158-2.063,2.21c-0.792,1.083-1.784,2.441-2.771,4.12
			c-2.026,3.327-4.275,7.82-6.207,13.141c-1.941,5.314-3.562,11.448-4.555,17.894c-0.44,3.231-0.831,6.522-0.943,9.83
			c-0.042,0.826-0.085,1.65-0.082,2.477c-0.01,0.571,0.007,0.435,0.016,0.529l0.03,0.173l0.073,0.409
			c0.008,0.125,0.111,0.42-0.041,0.315c-0.201-0.041-0.459-0.109-0.779-0.207l-0.123-0.038l-0.491-0.227l-1.034-0.48
			c-0.687-0.318-1.369-0.633-2.044-0.945c-2.708-1.234-5.318-2.423-7.78-3.545c-9.869-4.441-17.464-7.621-19.663-8.131
			c-11.213-2.6,5.633,7.718,27.567,19.031c2.611,1.338,5.255,2.693,7.92,4.06l2.095,1.068l1.048,0.534
			c0.018,0.005,0.052,0.036,0.057,0.019l0.001-0.074l0.001-0.148l0.002-0.296l0.005-0.592c0.011-1.575,0.021-3.155,0.032-4.739
			c0.034-1.541-0.044-3.255,0.021-4.802l0.046-1.767c0.008-0.386,0.008-0.772,0.036-1.157c0.092-1.54,0.135-3.087,0.291-4.62
			c0.217-3.077,0.652-6.112,1.089-9.082c0.516-2.955,1.047-5.849,1.72-8.592c2.55-11.031,6.303-19.838,7.37-24.347
			C1070.304,464.878,1069.97,464.303,1068.927,465.118z"/>
		<path style="fill:#06193F;" d="M1211.588,190.469c-0.508,0.351-1.116,0.821-1.815,1.403c-0.644,0.628-1.357,1.387-2.149,2.252
			c-1.546,1.752-3.191,4.087-4.738,6.914c-0.429,0.69-0.723,1.459-1.1,2.222c-0.346,0.773-0.756,1.554-1.066,2.385
			c-0.621,1.661-1.315,3.399-1.809,5.248c-0.589,1.835-0.985,3.766-1.441,5.749c-0.351,1.988-0.749,4.037-0.974,6.129
			c-0.534,4.184-0.801,8.54-0.859,12.931c-0.032,1.101-0.025,2.2-0.022,3.302l0.005,1.656l0.001,0.207l0,0.052
			c0,0.035,0.001-0.013,0.001-0.013l0,0.002l0.002,0.007l0.008,0.029l0.017,0.063c0.041,0.173,0.101,0.45,0.147,0.787
			c-0.101-0.033-0.232-0.1-0.415-0.186l-0.304-0.156l-0.079-0.038l-0.495-0.346l-0.987-0.689c-2.625-1.836-5.298-3.502-7.931-5.045
			c-5.286-3.057-10.474-5.511-15.155-7.374c-9.378-3.736-16.636-5.147-18.857-5.312c-3.969-0.193-4.813,0.325-3.412,1.3
			c1.403,0.979,5.071,2.382,10.079,4.52c5.01,2.128,11.353,5.028,18.086,8.868c3.358,1.932,6.814,4.088,10.252,6.459
			c0.853,0.602,1.732,1.18,2.574,1.818l1.28,0.939c0.231,0.153,1.376,1.017,2.178,1.695c3.484,2.805,6.921,5.638,10.285,8.436
			c-0.101-5.734-0.202-11.481-0.302-17.179c-0.05-3.076-0.02-6.105,0.07-9.068c0.173-5.924,0.694-11.56,1.68-16.597
			c0.973-5.036,2.356-9.488,3.928-13.089c0.372-0.911,0.819-1.729,1.182-2.547c0.188-0.408,0.369-0.803,0.546-1.186
			c0.204-0.367,0.401-0.723,0.591-1.066c0.377-0.693,0.72-1.35,1.026-1.967c0.308-0.615,0.654-1.123,0.911-1.628
			C1214.025,189.583,1213.631,189.06,1211.588,190.469z"/>
		<path style="fill:#06193F;" d="M2171.273,447.21c-1.996,1.99-5.139,6.326-8.245,12.475c-1.493,3.096-3.068,6.601-4.346,10.5
			c-0.702,1.928-1.237,3.979-1.839,6.062c-0.505,2.11-1.049,4.263-1.427,6.49c-0.811,4.438-1.373,9.077-1.483,13.76
			c-0.073,1.168-0.031,2.342-0.035,3.513l0.01,1.756c-0.001,0.202,0.007,0.13,0.01,0.188l0.013,0.089l0.027,0.185l0.056,0.397
			c0.019,0.15,0.038,0.283,0.061,0.362l0.144,0.681c-0.252-0.073-0.663-0.299-1.227-0.591c-2.116-1.451-4.342-2.91-6.439-4.243
			c-4.234-2.68-8.258-5.021-11.845-6.969c-7.178-3.895-12.585-6.241-14.453-6.766c-3.414-0.943-4.475-0.737-3.733,0.285
			c0.739,1.03,3.292,2.857,7.031,5.379c3.737,2.527,8.671,5.733,14.175,9.532c2.753,1.898,5.652,3.938,8.624,6.097
			c0.741,0.542,1.489,1.09,2.242,1.641c0.599,0.444,1.2,0.89,1.803,1.338c0.766,0.582,1.534,1.166,2.304,1.752
			c3.069,2.37,6.176,4.77,9.306,7.188c-0.132-1.691-0.264-3.388-0.396-5.088c-0.13-1.69-0.286-3.431-0.359-4.995
			c-0.164-3.047-0.453-7.077-0.37-7.981l-0.008-2.406l0.095-2.401c0.028-1.602,0.194-3.19,0.307-4.773
			c0.53-6.329,1.715-12.434,3.163-17.954c1.446-5.526,3.19-10.457,4.75-14.567c0.838-2.023,1.516-3.906,2.195-5.5
			c0.323-0.807,0.608-1.563,0.854-2.264c0.273-0.682,0.503-1.311,0.688-1.88C2173.927,445.406,2173.248,445.191,2171.273,447.21z"/>
	</g>
	<path style="fill:#06193F;" d="M1784.093,885.392l-204.635-107.713V620.636l-83.659-39.628l-111.493,45.499v137.463L292.063,688.56
		l-83.431,94.989L80.454,1131.882h37.182v388.45h1752.167v-388.45l29.614,0.979L1784.093,885.392z M107.851,1118.184l-10.213-0.109
		l130.564-325.719l66.535-65.557l102.739,98.825l6.849,127.2l-29.354-53.816l0.978,159l-36.692,2.935l-17.612-165.849l1.468,107.142
		l-24.951-90.997l8.806,157.043h-33.757l-17.612-142.366v133.56l-19.569,0.979l-6.849-172.209l18.591-24.462l13.699,13.698
		l-4.403-49.902l17.612-27.886l29.843,50.391l-14.677-66.535l20.059-14.525l-18.102-23.635l-54.794,51.858L107.851,1118.184z
		 M479.666,1278.652h-19.569l-27.397-165.36l-17.534,0.261l0.9,165.099h-7.828l-6.849-145.791h-23.483l-0.979,165.36
		l-37.182-179.059l-8.806,206.456l-11.742-127.2l-9.375,0.569l3.504,137.394h-17.612v-207.434l-19.569,11.741l4.892,190.8
		l-38.16-63.6l1.957-129.157l-30.332-0.978v195.693l-17.612-43.052l-24.462,39.139v-152.64l-23.483,7.828l-1.957-52.837
		l333.656-38.16L479.666,1278.652z M759.507,1264.953l0.979-116.437l10.144,117.448L759.507,1264.953z M774.265,1140.942
		l156.472,10.509l-2.935,66.536l-149.88-12.027L774.265,1140.942z M781.352,1266.939l-2.45-43.546l145.964,12.206v44.031
		L781.352,1266.939z M440.528,824.645l99.803,272.013l-7.828,273.969l-14.324-280.046l-92.153-269.37l-95.697-106.33l1255,90.194
		l178.08,101.76L440.528,824.645z"/>
	<path style="fill:#06193F;" d="M2990.843,1489.803c0.175-1.667,0.335-3.382,0.476-5.109c0.631-1.681,1.234-3.775,1.71-6.052
		c0.763-3.614,1.187-7.678,1.121-11.164c-0.054-3.488-0.581-6.386-1.496-7.731c-0.695-0.994-1.216-0.736-1.636,0.353
		c-0.004-0.013-0.009-0.028-0.013-0.04c-2.038-5.681-3.899,13.711-4.644,28.988c-2.046-0.343-4.34-0.725-6.849-1.139
		c0.016-0.347,0.031-0.696,0.045-1.048c0.241-6.02,0.097-12.662-0.438-18.308c-0.525-5.648-1.427-10.295-2.511-12.375
		c-2.193-4.141-1.985,6.416-1.777,18.547c0.08,4.144,0.163,8.464,0.239,12.455c-2.524-0.413-5.225-0.851-8.094-1.312
		c0.12-2.774,0.065-5.707-0.156-8.512c0.55-7.773,1.041-16.276,1.199-23.436c1.273-5.544,2.822-9.97,3.324-12.258
		c0.256-1.293,0.094-1.567-0.403-1.019c-0.248,0.274-0.579,0.752-0.981,1.408s-0.889,1.482-1.349,2.495
		c-0.192,0.391-0.389,0.814-0.587,1.255c-0.086-2.905-0.288-5.233-0.645-6.694c-1.378-5.605-3.335,7.818-4.372,23.379
		c-0.023,0.33-0.045,0.662-0.067,0.994c-0.137,0.316-0.166,1.028-0.129,2.041c-0.052,0.873-0.101,1.749-0.147,2.625
		c-0.001,0.026-0.002,0.051-0.004,0.077c-0.31,5.92-0.476,11.838-0.523,16.872c-0.922-0.147-1.859-0.295-2.81-0.446
		c-0.292-2.599-0.57-5.457-0.766-8.452c-0.51-7.211-0.495-15.183-0.09-21.994c0.356-6.816,1.037-12.471,0.975-15.154
		c-0.075-2.692-0.929-0.893-2.026,3.502c-1.063,4.393-2.157,11.42-2.357,18.987c-0.269,7.564,0.372,15.621,1.436,22.002
		c0.039,0.231,0.078,0.455,0.118,0.681c-1.385-0.218-2.807-0.44-4.247-0.665c0.134-1.398,0.267-2.83,0.399-4.289
		c1.487-17.13,3.102-37.748,1.982-44.083c-1.133-6.343-3.711,8.786-5.267,26.361c-0.643,7.159-1.109,14.699-1.38,21.348
		c-1.552-0.24-3.137-0.484-4.744-0.73c-0.085-0.872-0.176-1.788-0.27-2.754c-0.224-3.017-0.505-6.447-0.571-10.072
		c-0.216-7.245,0.202-15.231,1.013-22.027c0.757-6.804,1.836-12.419,1.971-15.109c0.12-2.702-0.866-0.963-2.27,3.369
		c-0.175,0.555-0.354,1.156-0.532,1.794c0.177-5.668,0.097-10.213-0.348-12.7c-1.834-10.241-5.856,31.211-7.518,56.202
		c-2.513-0.379-5.086-0.763-7.704-1.151c0.243-2.386,0.498-4.886,0.771-7.459c0.991-9.548,2.243-20.042,3.345-29.022
		c0.385-3.21,0.745-6.223,1.04-8.94c0.292-1.406,0.507-2.587,0.612-3.478c0.14-1.069,0.081-1.512-0.127-1.447
		c0.219-2.594,0.319-4.709,0.233-6.164c-0.323-6.692-4.387,7.447-7.066,25.405c-0.617,2.308-1.223,4.729-1.79,7.216
		c-1.783,7.663-3.179,15.866-4.057,22.854c-2.43-0.355-4.897-0.712-7.399-1.072c0.215-2.658,0.429-5.469,0.645-8.37
		c0.712-9.679,1.453-20.337,1.959-29.461c0.324-5.99,0.536-11.312,0.494-15.274c2.177-4.864,4.027-8.684,5.04-10.959
		c0.781-1.905,0.697-2.273-0.072-1.421c-0.384,0.426-0.939,1.157-1.64,2.15c-0.701,0.993-1.566,2.239-2.437,3.765
		c-0.366,0.595-0.744,1.24-1.129,1.91c-0.019-0.153-0.036-0.31-0.057-0.45c-0.536-3.702-1.568-0.858-2.658,5.505
		c-2.832,5.581-5.901,12.521-8.739,19.883c-1.573,4.024-3.139,8.15-4.695,12.212c0.936-14.526,0.951-28.678-0.325-33.72
		c-1.646-6.554-2.816,9.521-4.06,28.009c-0.428,6.695-0.893,13.708-1.296,20.09c-0.467,1.12-0.932,2.204-1.396,3.27
		c-2.446-0.335-4.915-0.671-7.405-1.006c0.308-2.937,0.619-6.153,0.934-9.51c0.765-8.233,1.58-17.298,2.162-25.069
		c0.071-0.972,0.138-1.924,0.2-2.852c2.743-7.345,5.074-13.376,5.817-16.367c1.04-3.998-1.664,0.285-5.414,8.353
		c0.071-2.77,0.02-5.004-0.214-6.463c-0.82-5.325-3.215,4.782-4.969,18.559c-0.561,1.415-1.119,2.862-1.67,4.335
		c-3.216,8.509-6.125,17.758-8.144,25.292c-0.197,0.736-0.384,1.45-0.565,2.151c-1.393-0.182-2.791-0.363-4.194-0.543
		c0.212-2.526,0.434-5.172,0.67-7.894c0.564-6.658,1.22-13.744,1.867-20.534c1.9-4.917,3.628-8.895,4.174-10.992
		c0.596-2.333-0.646-1.066-2.781,2.34c-0.215,0.347-0.441,0.733-0.67,1.125c0.094-0.967,0.187-1.933,0.278-2.871
		c0.905-9.575,1.626-17.543,1.332-21.309c-0.523-7.552-4.721,10.29-7.011,31.224c-0.213,1.899-0.405,3.824-0.586,5.754
		c-0.181,0.482-0.365,0.96-0.54,1.451c-2.305,6.307-3.995,13.273-4.876,18.944c-0.09,0.581-0.17,1.143-0.246,1.694
		c-0.349-0.044-0.698-0.088-1.048-0.132c0.02-0.193,0.041-0.372,0.06-0.568c0.285-2.897,0.533-6.202,0.729-9.686
		c0.784-13.936,0.745-30.737-0.982-35.79c-1.727-5.053-2.777,7.287-3.242,21.52c-0.233,7.116-0.319,14.705-0.27,20.83
		c0.009,1.134,0.023,2.218,0.041,3.239c-2.208-0.273-4.423-0.545-6.647-0.815c0.023-1.412,0.041-2.87,0.054-4.362
		c0.05-6.399,0.031-13.373-0.113-19.587c1.709-5.735,3.12-10.358,3.557-12.821c0.664-3.468-1.192-0.437-3.802,5.917
		c-0.229-4.431-0.592-7.987-1.201-9.907c-1.61-5.176-3.021,7.327-3.161,21.85c-0.667,2.039-1.326,4.165-1.956,6.345
		c-1.099,3.738-2.103,7.615-2.993,11.42c-1.798-0.211-3.598-0.42-5.403-0.627c0.296-2.585,0.53-5.488,0.657-8.555
		c0.284-6.535,0.07-13.749-0.618-19.86c-0.67-6.115-1.784-11.116-2.97-13.322c-2.414-4.381-1.571,6.992-1.189,20.08
		c0.214,6.549,0.308,13.542,0.328,19.199c0.002,0.697,0.004,1.373,0.006,2.025c-4.932-0.559-9.884-1.104-14.842-1.63
		c-1.975-0.21-4.036-0.392-6.134-0.561c0.19-0.988,0.372-1.992,0.53-3.03c0.987-6.271,1.265-13.291,0.772-19.221
		c-0.456-5.938-1.624-10.758-2.849-12.839c-2.532-4.11-1.221,6.686-1.613,19.119c-0.126,5.271-0.566,10.827-1.122,15.657
		c-6.686-0.437-13.927-0.687-21.652-0.769c0.103-11.346-0.914-26.048-3.064-30.19c-2.809-5.411-2.344,15.573-1.29,30.16
		c-3.429-0.008-6.937,0.011-10.538,0.064c0.012-1.224,0.011-2.476-0.016-3.765c-0.122-6.544-0.797-13.736-1.884-19.792
		c-1.069-6.061-2.518-10.979-3.851-13.099c-2.708-4.207-1.083,7.08,0.138,20.115c0.544,5.583,1.01,11.49,1.362,16.618
		c-2.527,0.052-5.083,0.115-7.686,0.195c-0.023-0.477-0.046-0.955-0.065-1.443c-0.228-5.066-0.192-10.652-0.02-15.475
		c0.136-4.824,0.365-8.896-0.121-10.948c-0.496-2.06-1.448-0.884-2.497,2.233c-1.023,3.111-1.982,8.179-2.197,13.649
		c-0.026,0.543-0.04,1.091-0.052,1.639c-0.139,0.767-0.275,1.544-0.405,2.332c-0.457,2.709-0.85,5.51-1.177,8.24
		c-4.261,0.163-8.613,0.36-13.048,0.589c0.357-2.167,0.698-4.471,1.008-6.859c1.017-7.772,1.684-16.386,1.801-23.757
		c0.131-7.371-0.267-13.49-1.125-16.303c-1.751-5.61-2.615,8.141-3.873,23.925c-0.611,7.897-1.327,16.313-1.917,23.111
		c-0.003,0.036-0.006,0.07-0.009,0.105c-6.931,0.384-14.051,0.84-21.339,1.366c-0.535-3.203-1.137-6.721-1.632-10.443
		c-0.408-2.869-0.769-5.844-1.089-8.836c0.074-2.396,0.155-4.741,0.239-6.954c0.228-6.525,0.45-11.954,0.136-14.498
		c-0.29-2.594-1.029-0.705-1.768,3.652c-0.441-8.07-0.539-14.808-1.172-17.993c-0.656-3.23-1.539-0.975-2.326,4.427
		c-0.752,5.394-1.189,13.943-0.605,23.04c0.338,5.979,1.127,12.165,2.146,17.86c0.001,3.576,0.092,7.039,0.247,10.179
		c-2.5,0.19-5.017,0.388-7.552,0.593c-0.309-1.88-0.657-3.882-1.028-5.952c-0.071-0.391-0.144-0.791-0.216-1.187
		c0.14-4.218,0.399-8.457,0.731-12.277c0.48-5.911,1.083-10.823,0.971-13.175c-0.123-2.358-0.927-0.816-1.968,2.975
		c-0.707,2.633-1.453,6.377-2.002,10.607c-0.41-2.029-0.823-4.013-1.232-5.889c-1.288-5.846-2.557-10.687-3.784-12.837
		c-2.429-4.324-1.803,7.06,0.473,19.963c1.013,5.811,2.361,11.902,3.683,17.023c0.011,0.372,0.028,0.737,0.042,1.104
		c-4.065,0.34-8.164,0.694-12.308,1.07c-0.325-1.892-0.691-3.907-1.081-5.99c-0.751-3.989-1.583-8.227-2.434-12.295
		c0.001-0.085-0.002-0.175-0.001-0.259c-0.035-5.759,0.789-10.492,1.036-12.79c0.062-1.168-0.131-1.416-0.537-0.896
		c-0.203,0.26-0.458,0.709-0.757,1.326c-0.302,0.616-0.663,1.394-0.932,2.344c-0.219,0.632-0.423,1.34-0.61,2.102
		c-1.229-5.197-2.434-9.43-3.579-11.395c-2.479-4.317-1.719,7.107,0.68,20.044c0.554,3.022,1.2,6.118,1.881,9.119
		c0.184,3.137,0.456,6.262,0.682,9.212c-1.769,0.165-3.545,0.334-5.325,0.505c0.227-13.54-1.256-35.92-3.882-41.523
		c-3.349-7.149-1.575,25.52,0.121,41.886c-4.087,0.4-8.209,0.818-12.352,1.247c0.513-12.24,0.481-26.867-0.663-31.253
		c-1.005-3.853-1.667,3.949-2.026,14.333c-0.848-4.804-1.951-9.662-3.178-13.923c-1.654-5.754-3.514-10.385-5.013-12.322
		c-3.036-3.842-0.546,7.001,2.025,19.52c0.639,3.135,1.299,6.374,1.937,9.502c0.63,3.146,1.224,6.095,1.468,8.741
		c0.231,2.293,0.2,4.316,0.005,5.971c-2.914,0.308-5.841,0.624-8.778,0.945c0.214-2.257,0.378-4.768,0.471-7.401
		c0.22-6.02,0.058-12.661-0.491-18.305c-0.539-5.647-1.449-10.292-2.536-12.37c-2.2-4.139-1.977,6.42-1.735,18.554
		c0.136,6.08,0.281,12.557,0.398,17.784c0.018,0.748,0.037,1.468,0.056,2.16c-1.24,0.138-2.486,0.278-3.729,0.417
		c0.255-4.924,0.306-10.033,0.119-14.526c-0.221-5.661-0.792-10.332-1.508-12.441c-1.464-4.204-1.266,6.382-1.514,18.544
		c-0.051,2.894-0.129,5.877-0.22,8.775c-0.744,0.084-1.485,0.167-2.23,0.252c0.413-16.358-0.497-40.792-2.838-47.233
		c-3.024-8.322-2.333,27.388-1.168,47.695c-2.946,0.341-5.898,0.687-8.858,1.038c0.51-12.738,0.514-27.16-0.543-31.647
		c-1.438-6.1-2.303,14.886-2.533,32.012c-1.934,0.232-3.871,0.466-5.809,0.702c0.747-2.424,1.482-5.094,2.151-7.907
		c1.692-7.037,2.929-14.929,3.389-21.711c0.486-6.782,0.233-12.433-0.572-15.037c-1.674-5.182-2.615,7.374-4.816,21.653
		c-1.069,7.15-2.462,14.741-3.712,20.857c-0.189,0.919-0.372,1.801-0.548,2.648c-1.596,0.196-3.191,0.392-4.79,0.591
		c0.122-4.366,0.16-9.552,0.109-14.844c1.789-10.072,2.068-19.35,1.115-22.982c-0.624-2.264-1.213-1.324-1.903,1.599
		c-0.281-3.64-0.637-6.533-1.072-8.152c-1.323-4.936-1.599,7.4-1.421,21.583c-0.105,0.581-0.211,1.168-0.321,1.764
		c-1.112,6.118-2.546,12.966-4.068,19.211c-0.235,0.971-0.472,1.922-0.708,2.858c-3.667,0.465-7.339,0.939-11.012,1.416
		c3.026-15.588,6.3-43.469,4.799-50.711c-1.93-9.308-7.055,32.61-8.475,51.19c-0.179,0.023-0.359,0.046-0.538,0.07
		c0.006-1.71,0.008-3.493,0.006-5.322c-0.069-14.847-0.091-32.698-1.15-38.037c-1.071-5.344-2.048,7.854-2.076,23.07
		c-0.04,7.009,0.163,14.43,0.45,20.655c-1.424,0.188-2.847,0.376-4.27,0.565c0.26-2.398,0.499-4.933,0.703-7.555
		c0.706-8.93,0.994-18.798,0.763-27.216c-0.215-8.419-0.926-15.381-1.93-18.542c-2.046-6.305-2.161,9.458-2.714,27.565
		c-0.254,8.98-0.622,18.54-0.953,26.299c-3.055,0.409-6.109,0.823-9.161,1.239c-0.23-3.536-0.621-7.675-1.152-12.059
		c-0.247-2.094-0.531-4.241-0.843-6.401c-0.113-1.302-0.233-2.588-0.367-3.829c-0.814-7.747-1.984-14.101-2.979-16.933
		c-0.39-1.077-0.64-1.416-0.787-1.151c-1.209-4.941-2.445-8.846-3.549-10.805c-2.879-5.128-0.924,8.542,1.546,24.222
		c1.269,7.895,2.629,16.316,3.795,23.075c0.052,1.499,0.097,2.986,0.137,4.452c-2.641,0.363-5.279,0.728-7.913,1.094
		c0.188-4.34,0.093-10.025-0.453-16.147c-0.709-8.267-2.281-17.294-4.313-24.812c-1.998-7.53-4.397-13.542-6.156-16.06
		c-3.591-4.983,0.524,8.854,3.453,25.144c1.51,8.141,2.714,16.899,3.471,24.006c0.335,3.172,0.602,6.01,0.826,8.312
		c-3.193,0.447-6.381,0.897-9.562,1.349c-0.201-13.836-1.31-32.532-2.908-37.659c-1.09-3.498-1.333,2.232-1.151,11.012
		c-0.081-2.984-0.23-5.898-0.451-8.635c-0.595-7.646-1.699-13.926-2.886-16.724c-2.427-5.569-1.52,8.687-1.372,25.09
		c0.103,8.206,0.009,16.961-0.162,24.033c-0.036,1.474-0.073,2.869-0.107,4.176c-3.857,0.556-7.702,1.114-11.531,1.675
		c-0.045-0.749-0.09-1.504-0.134-2.27c-0.485-8.21-0.808-17.259-0.982-25.001c-0.198-7.742-0.284-14.179-0.737-17.154
		c-0.242-1.713-0.553-1.722-0.866-0.471c-0.075-0.348-0.154-0.671-0.24-0.953c-1.695-5.437-2.683,7.814-4.195,23.007
		c-0.737,7.603-1.612,15.702-2.346,22.244c-0.079,0.698-0.155,1.374-0.228,2.034c-3.828,0.568-7.641,1.138-11.429,1.708
		c1.375-6.824,2.684-14.686,3.6-22.427c1.823-14.8,2.267-29.044,1.206-34.233c-1.352-6.44-2.773,7.636-4.873,25.138
		c-1.046,8.755-2.274,18.376-3.44,26.765c-0.257,1.874-0.509,3.675-0.752,5.401c-2.717,0.412-5.421,0.823-8.113,1.235
		c0.43-1.51,0.857-3.04,1.278-4.59c1.582-5.816,3.083-11.844,4.35-17.539c2.543-11.391,4.15-21.446,3.952-25.765
		c-0.267-5.508-2.854,3.064-6.216,16.015c-1.682,6.477-3.579,14.047-5.448,21.519c-0.932,3.737-1.858,7.448-2.74,10.985
		c-0.01,0.04-0.02,0.079-0.029,0.119c-1.068,0.164-2.13,0.329-3.193,0.493c-0.044-0.34-0.082-0.666-0.111-0.958
		c-0.086-0.861-0.15-1.503-0.189-1.898c-0.231-1.745-0.381-2.602-0.701-2.644c-0.145-0.02-0.327,0.161-0.521,0.531
		c0.312-4.223,0.553-9.613,0.75-15.417c0.274-8.227,0.473-17.288,0.47-25.044c-0.013-7.756-0.242-14.21-0.998-17.213
		c-1.486-6.017-3.215,8.583-3.766,25.477c-0.287,8.442-0.276,17.444-0.058,24.695c0.182,6.033,0.487,10.845,0.797,13.14
		c-4.177,0.648-8.318,1.296-12.418,1.941c-0.144-4.366-0.503-9.618-1.099-15.201c-0.957-9.108-2.569-19.073-4.465-27.468
		c-1.876-8.4-4.005-15.226-5.643-18.183c-2.99-5.301-0.675,6.966,1.972,22.788c-1.006,3.601-2.348,11.671-3.04,20.566
		c-0.541,6.623-0.706,13.654-0.594,19.539c-0.686,0.109-1.378,0.219-2.062,0.329c0.187-1.48,0.348-3.032,0.469-4.641
		c0.463-5.909,0.392-12.455-0.216-17.991c-0.587-5.541-1.676-10.057-2.854-12.031c-2.404-3.911-1.554,6.308-1.411,18.07
		c0.099,5.885,0.016,12.17-0.141,17.259c-2.963,0.476-5.902,0.95-8.81,1.421c2.266-19.011,4.569-46.144,3.85-53.6
		c-0.532-5.512-2.012,4.906-3.528,19.331c-0.48-2.871-1.111-5.123-1.791-6.407c-2.378-4.314-1.523,6.815-1.993,19.595
		c-0.196,6.398-0.733,13.217-1.335,18.722c-0.124,1.126-0.247,2.195-0.364,3.197c-2.844,0.463-5.662,0.924-8.447,1.381
		c0.234-2.701,0.459-5.753,0.694-8.96c0.471-6.609,1.004-13.884,1.378-20.132c0.357-6.248,0.532-11.477-0.02-13.991
		c-1.056-5.055-3.86,6.594-5.094,20.302c-0.637,6.841-0.872,14.162-0.779,20.053c0.019,1.177,0.05,2.293,0.089,3.341
		c-0.594,0.098-1.185,0.196-1.776,0.293c-0.086-3.314-0.301-7.159-0.648-11.228c-0.63-7.463-1.708-15.646-3.021-22.569
		c-0.733-3.894-1.536-7.389-2.34-10.144c-0.063-2.074-0.179-3.755-0.356-4.913c-0.334-2.19-0.713-1.63-1.105,0.775
		c-0.13-0.287-0.26-0.556-0.387-0.789c-1.957-3.531-1.695,2.139-0.686,11.148c-0.872,11.157-1.677,27.521-2.085,39.483
		c-1.764,0.294-3.522,0.587-5.255,0.878c0.609-4.454,0.948-11.883,0.678-20.134c-0.253-8.328-1.158-17.473-2.505-25.184
		c-1.323-7.716-3.049-13.989-4.513-16.716c-2.982-5.42-0.612,8.96,1.063,25.61c0.869,8.327,1.558,17.231,1.998,24.436
		c0.33,5.443,0.56,9.91,0.789,12.406c-5.031,0.845-9.934,1.673-14.679,2.48c-0.022-1.584-0.042-3.268-0.05-5.041
		c0.041-1.879,0.092-3.844,0.162-5.865c0.241-7.716,0.804-16.198,1.428-23.467c0.572-7.065,1.153-12.985,0.886-16.006
		c0.023-0.582,0.034-1.105,0.024-1.545c-0.051-2.028-0.479-1.676-1.115,0.335c-0.468,0.733-1.045,2.312-1.68,4.532
		c-1.305,4.649-2.706,12.094-3.41,20.139c-0.754,8.04-0.796,16.653-0.364,23.549c0.09,1.413,0.195,2.748,0.309,3.999
		c-2.884,0.46-5.851,0.892-8.896,1.296c0.263-3.667,0.584-7.963,1.057-12.508c0.806-8.06,2.146-16.883,3.559-24.408
		c1.368-7.534,2.748-13.786,2.813-16.872c0.053-3.096-1.281-1.26-3.205,3.46c-1.891,4.721-4.177,12.379-5.655,20.76
		c-1.542,8.369-2.252,17.422-2.252,24.696c0.002,1.916,0.043,3.703,0.111,5.33c-0.796,0.098-1.601,0.194-2.407,0.289
		c0.162-10.906-2.276-40.312-4.664-46.732c-2.97-7.987,1.135,35.721,2.873,46.938c-2.615,0.296-5.28,0.575-7.996,0.836
		c-0.225-3.558-0.55-8.009-0.75-12.798c-0.324-7.023-0.333-14.767-0.161-21.418c0.133-6.652,0.398-12.219-0.083-14.906
		c-0.492-2.694-1.47-0.956-2.541,3.356c-1.043,4.307-2.009,11.201-2.182,18.611c-0.228,7.408,0.352,15.296,1.313,21.557
		c0.339,2.196,0.71,4.188,1.075,5.907c-2.795,0.25-5.637,0.484-8.53,0.7c0.001-14.545-1.24-38.641-3.056-44.696
		c-1.449-4.834-1.383,7.138-0.808,21.086c-0.572-1.291-1.171-2.3-1.758-2.895c-2.557-2.52-1.314,4.755-0.218,13.149
		c0.568,4.203,1.096,8.706,1.502,12.366c0.049,0.443,0.096,0.871,0.143,1.287c-3.722,0.252-7.52,0.477-11.388,0.676
		c1.502-16.998,2.744-43.811,1.615-50.832c-1.27-7.905-3.085,21.256-3.933,42.665c-0.252-1.377-0.495-2.739-0.719-4.022
		c-0.597-3.276-1.119-6.085-1.982-7.469c-0.871-1.39-1.575-0.502-2.044,1.771c-0.452,2.263-0.549,5.893-0.023,9.702
		c0.37,2.885,1.097,5.848,1.967,8.432c-2.06,0.093-4.138,0.178-6.236,0.257c0.009-2.03,0.01-4.164,0.008-6.364
		c-0.017-7.723-0.047-16.225-0.176-23.507c-0.145-7.282-0.41-13.349-1.175-16.18c-1.49-5.685-3.264,8.077-3.425,24.021
		c-0.063,5.034,0.039,10.272,0.251,15.169c-0.216,2.462-0.446,4.837-0.676,7.04c-3.248,0.103-6.534,0.191-9.864,0.263
		c-0.038-0.851-0.077-1.732-0.118-2.666c-0.079-3.154-0.22-6.737-0.133-10.512c0.08-7.551,0.814-15.848,1.862-22.924
		c0.989-7.086,2.219-12.96,2.236-15.878c0.002-2.933-1.301-1.233-3.114,3.232c-1.77,4.463-3.792,11.762-4.744,19.747
		c-1.035,7.974-0.976,16.565-0.229,23.38c0.231,2.082,0.508,3.995,0.799,5.69c-3.441,0.063-6.925,0.109-10.444,0.141
		c2.542-15.651,4.78-37.991,3.39-44.309c-1.813-8.239-5.858,24.449-7.556,44.34c-3.59,0.021-7.214,0.027-10.877,0.017
		c0.186-2.266,0.35-4.65,0.481-7.111c0.482-8.768,0.519-18.446,0.101-26.683c-0.396-8.24-1.213-15.032-2.048-18.091
		c-1.002-3.55-1.108,0.196-1.025,7.442c-0.944,3.468-1.957,10.281-2.739,17.976c-0.49-4.001-1.043-7.921-1.644-11.545
		c-1.335-8.148-2.867-14.823-4.017-17.784c-2.34-5.905,0.124,9.398,2.22,27.088c0.79,6.531,1.526,13.387,2.141,19.601
		c-0.16,3.273-0.264,6.357-0.317,9.072c-3.149-0.023-6.323-0.057-9.519-0.1c0.096-1.926,0.155-3.99,0.163-6.141
		c0.03-6.186-0.356-12.997-1.107-18.771c-0.542-4.23-1.27-7.896-2.079-10.381c-0.209-1.39-0.432-2.531-0.665-3.359
		c-0.503-1.762-0.805-1.468-0.979,0.262c-1.474-0.646-0.907,9.033-0.33,19.967c0.092,1.713,0.185,3.456,0.277,5.196
		c0.035,4.405,0.071,8.914,0.105,13.157c-0.362-0.006-0.723-0.011-1.086-0.017c-0.284-2.323-0.621-4.9-0.98-7.595
		c-0.818-6.1-1.734-12.813-2.593-18.546c-0.868-5.732-1.693-10.485-2.5-12.629c-1.592-4.304-1.277,6.701,0.296,19.259
		c0.773,6.276,1.864,12.926,2.91,18.252c0.082,0.413,0.162,0.815,0.242,1.212c-2.267-0.042-4.542-0.088-6.829-0.14
		c-0.021-0.235-0.042-0.469-0.063-0.704c-1.364-14.827-3.654-32.584-5.471-37.72c-1.816-5.136-0.843,8.036,0.77,23.138
		c0.403,3.775,0.846,7.672,1.296,11.433c0.144,1.281,0.302,2.54,0.46,3.782c-0.525-0.013-1.048-0.025-1.574-0.038
		c0.489-8.855-0.297-22.031-2.597-25.532c-2.945-4.482-2.486,14.356-1.452,25.427c-3.251-0.088-6.521-0.185-9.808-0.291
		c0.002-0.738,0-1.482-0.009-2.237c-0.008-0.895-0.027-1.802-0.052-2.715c1.108-9.065,1.505-19.482,0.038-22.883
		c-0.711-1.648-1.404-0.789-2.036,1.55c-1.161-7.142-2.709-12.927-3.875-15.474c-2.437-5.132,0.425,8.327,1.873,24.041
		c0.086,0.885,0.166,1.778,0.243,2.673c-0.521,4.946-0.906,10.41-1.093,14.88c-1.851-0.064-3.707-0.131-5.568-0.199
		c0.376-3.054,0.682-6.571,0.861-10.297c0.358-7.183,0.218-15.115-0.414-21.845c-0.613-6.734-1.687-12.258-2.857-14.712
		c-2.383-4.881-1.618,7.667-1.367,22.103c0.149,7.223,0.164,14.93,0.116,21.161c-0.01,1.212-0.02,2.365-0.029,3.451
		c-2.95-0.114-5.911-0.234-8.883-0.36c0.005-0.07,0.009-0.137,0.014-0.208c0.295-4.66,0.586-9.792,0.718-14.221
		c0.118-4.428,0.058-8.161-0.602-10.003c-1.07-3.106-2.79,2.159-3.776,9.685c-1.484-7.135-3.165-14.076-4.671-19.203
		c0.191-0.931,0.383-1.849,0.574-2.744c1.417-6.809,2.759-12.473,2.806-15.308c0.037-2.844-1.267-1.229-3.158,3.003
		c-0.898,2.039-1.893,4.701-2.861,7.754c-0.833-1.534-0.958-0.572-0.623,2.033c-0.817,2.761-1.595,5.775-2.254,8.909
		c-1.647,7.557-2.581,15.756-2.824,22.364c-0.098,2.712-0.099,5.146-0.042,7.175c-2.536-0.124-5.076-0.251-7.623-0.382
		c0.305-0.869,0.601-1.777,0.879-2.719c1.226-4.116,2.085-8.79,2.325-12.825c0.258-4.037-0.078-7.416-0.91-9.004
		c-1.71-3.143-2.626,4.132-4.152,12.397c-0.057,0.319-0.117,0.641-0.176,0.962c0.157-7.773-0.028-15.904-0.54-22.999
		c-0.591-8.533-1.608-15.552-2.538-18.701c-1.918-6.279-0.469,9.692-0.127,28.107c0.182,8.287,0.133,17.056-0.042,24.503
		c-3.173-0.169-6.354-0.344-9.542-0.524c0.129-1.489,0.267-3.066,0.428-4.707c0.469-4.992,1.177-10.467,1.852-15.187
		c0.645-4.723,1.222-8.704,0.904-10.762c-0.326-2.066-1.364-0.994-2.672,1.952c-1.286,2.943-2.713,7.784-3.557,13.082
		c-0.873,5.217-1.164,10.846-1.003,15.389c-2.264-0.131-4.532-0.265-6.802-0.401c0.31-1.487,0.608-3.004,0.865-4.573
		c1.342-7.718,2.023-16.24,1.98-23.875c0.118-0.645,0.236-1.291,0.353-1.917c1.209-6.664,2.308-12.224,2.227-14.99
		c-0.089-2.773-1.312-1.161-3.018,3.005c-0.111,0.274-0.223,0.562-0.337,0.858c-0.465-3.847-1.08-6.871-1.658-8.624
		c-0.99-3.057-1.092-0.66-0.848,4.702c0.109,2.827,0.25,6.499,0.288,10.647c-0.929,3.22-1.827,6.88-2.56,10.713
		c-1.457,7.369-2.285,15.338-2.502,21.761c-0.022,0.677-0.038,1.334-0.05,1.975c-3.426-0.21-6.857-0.426-10.292-0.647
		c0.128-0.683,0.245-1.384,0.337-2.11c0.055-0.413,0.1-0.833,0.142-1.256c0.726-3.429,1.233-6.856,1.49-10.016
		c0.484-6.189,0.088-11.322-0.609-13.615c-0.685-2.294-1.018-0.551-1.312,3.344c-0.134,1.885-0.355,4.281-0.63,6.978
		c-0.575-1.881-1.302-3.328-2.069-4.062c-1.161-1.116-1.602-0.079-1.661,2.057c-0.073,2.144,0.155,5.432,0.213,8.983
		c0.077,3.164,0.012,6.531-0.121,9.424c-2.586-0.169-5.173-0.34-7.762-0.515c0.323-1.651,0.613-3.423,0.843-5.278
		c0.689-5.425,0.852-11.468,0.428-16.588c-0.251-3.202-0.716-6.036-1.303-8.16c0.007-2.996-0.206-5.375-0.541-6.783
		c-0.617-2.37-0.927-0.781-1.385,3.021c-0.966-0.253-1.077,3.651-1.13,9.185c-0.384,2.766-0.863,5.784-1.485,8.879
		c-0.984,5.118-2.358,10.416-3.811,15.149c-1.686-0.117-3.373-0.236-5.059-0.355c0.68-3.46,1.294-7.725,1.678-12.315
		c0.625-7.212,0.65-15.205,0.059-21.977c-0.564-6.777-1.701-12.319-2.907-14.762c-2.474-4.85-1.403,7.688-1.403,22.123
		c0.034,7.223-0.208,14.931-0.542,21.16c-0.11,2.021-0.221,3.884-0.316,5.527c-3.598-0.257-7.196-0.519-10.793-0.785
		c0.644-2.184,1.264-4.524,1.764-6.994c1.587-7.421,2.313-15.793,2.027-22.895c-0.235-7.11-1.401-12.908-2.643-15.432
		c-1.226-2.525-1.603-0.493-1.617,3.963c-0.021,1.993-0.01,4.486-0.042,7.293c-0.558,4.419-1.284,10.114-2.344,16.081
		c-1.01,5.892-2.349,12.027-3.715,17.494c-3.07-0.231-6.137-0.465-9.201-0.702c2.839-9.241,5.359-21.047,4.374-24.968
		c-1.33-5.295-6.168,12.244-8.823,24.623c-1.029-0.08-2.057-0.161-3.085-0.241c0.148-0.869,0.288-1.754,0.417-2.656
		c0.99-6.704,1.356-14.183,1.037-20.53c-0.283-6.352-1.193-11.55-2.085-13.845c-1.291-3.153-1.005,1.472-0.88,9.087
		c-1.015,2.34-2.104,7.919-3.117,14.037c-0.737,4.528-1.449,9.344-1.967,13.385c-2.006-0.16-4.01-0.321-6.012-0.482
		c0.328-2.492,0.69-5.231,1.109-8.09c0.972-6.806,2.298-14.259,3.547-20.641c1.216-6.389,2.314-11.723,2.235-14.395
		c-0.086-2.679-1.304-1.155-3.008,2.825c-1.68,3.979-3.705,10.448-5.131,17.528c-1.472,7.071-2.328,14.727-2.572,20.899
		c-0.021,0.533-0.036,1.05-0.05,1.559c-0.339-0.028-0.68-0.055-1.019-0.083c0.042-1.311,0.071-2.662,0.087-4.044
		c0.086-6.987-0.21-14.681-0.83-21.217c-0.605-6.538-1.512-11.912-2.381-14.315c-0.267-0.723-0.471-1.052-0.624-1.05
		c-0.214-2.455-0.539-4.416-0.97-5.657c-1.785-5.039-2.579,7.294-3.643,21.456c-0.541,7.093-1.118,14.65-1.582,20.746
		c-0.089,1.135-0.172,2.219-0.248,3.242c-1.643-0.137-3.285-0.274-4.924-0.412c-0.008-2.131-0.06-4.435-0.167-6.831
		c-0.281-6.51-0.984-13.657-1.95-19.703c-0.951-6.049-2.142-10.991-3.136-13.168c-1.78-3.816-0.719,4.513,0.445,15.494
		c-0.286-0.417-0.573-0.779-0.853-1.036c-1.353-1.257-1.603,0.042-1.332,2.635c0.248,2.606,0.878,6.6,1.093,10.948
		c0.228,3.731,0.137,7.703-0.137,11.152c-2.171-0.184-4.337-0.369-6.499-0.554c0.428-3.294,0.805-6.986,0.891-10.892
		c0.28-8.466-0.558-17.808-2.239-25.563c-1.625-7.773-3.996-13.93-5.76-16.486c-1.747-2.562-1.681-0.27-0.757,4.634
		c0.888,4.917,2.418,12.557,3.269,20.862c0.929,8.293,1.156,17.22,0.911,24.434c-0.033,0.925-0.07,1.821-0.111,2.686
		c-2.021-0.174-4.039-0.349-6.051-0.524c-0.037-1.742-0.11-3.574-0.228-5.46c-0.275-4.606-0.831-9.506-1.576-14.126
		c0.01-3.286-0.054-6.503-0.203-9.508c-0.354-7.504-1.189-13.695-2.249-16.489c-1.348-3.474-1.786,0.68-1.988,8.208
		c-0.262-0.643-0.514-1.19-0.749-1.62c-1.75-3.106-0.778,2.086,0.597,10.282c-0.032,2.458-0.064,5.048-0.107,7.697
		c-0.095,6.869-0.275,14.116-0.466,20.407c-2.315-0.203-4.624-0.407-6.926-0.611c0.377-3.219,0.638-7.205,0.687-11.498
		c0.088-6.532-0.33-13.727-1.182-19.81c-0.834-6.087-2.074-11.053-3.314-13.226c-2.521-4.316-1.406,7.025-0.658,20.09
		c0.397,6.537,0.697,13.519,0.891,19.168c0.062,1.816,0.118,3.492,0.175,4.972c-3.347-0.298-6.678-0.595-9.992-0.894
		c0.565-2.281,1.101-4.784,1.562-7.413c1.196-6.7,1.869-14.185,1.841-20.576c-0.002-6.394-0.666-11.674-1.659-14.057
		c-2.05-4.732-2.064,7.073-3.239,20.563c-0.555,6.754-1.408,13.94-2.228,19.738c-0.068,0.475-0.134,0.937-0.199,1.392
		c-0.23-0.021-0.46-0.042-0.689-0.062c0.047-1.006,0.084-2.069,0.118-3.19c0.022-3.341-0.032-7.156-0.399-11.152
		c-0.65-8-2.335-16.715-4.558-23.902c-2.174-7.207-4.798-12.875-6.446-15.242c-3.404-4.676,2.218,8.164,5.477,23.842
		c1.694,7.818,2.777,16.302,3.234,23.186c0.15,2.294,0.247,4.402,0.315,6.255c-1.965-0.178-3.922-0.356-5.874-0.533
		c0.098-0.368,0.202-0.731,0.288-1.109c1.293-5.239,1.648-11.243,1.005-16.239c-0.588-5.01-2.079-8.951-3.448-10.512
		c-1.351-1.565-1.605-0.086-1.385,2.936c0.186,3.035,0.647,7.732,0.447,12.801c-0.101,3.931-0.613,8.055-1.318,11.72
		c-2.263-0.207-4.517-0.413-6.76-0.619c0.442-3.221,0.824-6.775,0.928-10.527c0.354-8.844-0.547-18.612-2.389-26.691
		c-1.777-8.102-4.381-14.482-6.253-17.111c-1.851-2.636-1.689-0.255-0.591,4.828c0.137,0.66,0.285,1.368,0.441,2.118
		c-0.458-0.304-0.279,2.014,0.232,5.953c0.65,5.277,1.685,13.522,2.016,22.408c0.279,6.15,0.204,12.581-0.091,18.497
		c-3.327-0.306-6.628-0.611-9.906-0.915c2.521-9.148,4.618-20.582,3.542-24.38c-1.453-5.127-5.671,11.688-8.003,23.967
		c-1.732-0.161-3.457-0.321-5.174-0.48c0.104-0.418,0.208-0.836,0.31-1.259c2.183-8.926,3.738-18.951,4.324-27.552
		c0.632-8.601,0.362-15.748-0.252-18.986c-1.259-6.078-1.174,7.802-3.357,24.67c-0.49,0.062-1.197,0.963-2.027,2.468
		c-1.355,2.483-2.953,6.616-4.151,11.179c-0.778,2.894-1.388,5.953-1.816,8.831c-1.024-0.095-2.045-0.19-3.064-0.285
		c0.243-3.26,0.509-7.001,0.853-10.949c0.635-7.568,1.592-15.876,2.524-22.992c0.899-7.119,1.728-13.059,1.51-15.959
		c-0.227-2.906-1.374-1.109-2.878,3.402c-1.481,4.51-3.178,11.758-4.247,19.622c-1.116,7.858-1.588,16.309-1.526,23.102
		c0.012,1.2,0.038,2.345,0.073,3.43c-1.488-0.138-2.969-0.276-4.443-0.414c0.013-0.166,0.03-0.326,0.042-0.494
		c0.251-3.496,0.146-7.252-0.266-10.774c0.194-1.452,0.354-2.876,0.47-4.238c0.449-5.084,0.369-9.323-0.129-11.28
		c-0.716-2.656-1.302,0.887-2.169,6.807c-0.833-2.575-1.808-4.546-2.717-5.525c-1.35-1.466-1.62-0.057-1.35,2.849
		c0.25,2.916,0.919,7.398,1.274,12.255c0.155,1.893,0.259,3.84,0.321,5.764c-0.261,1.404-0.53,2.786-0.802,4.139
		c-1.967-0.183-3.917-0.365-5.859-0.545c0.397-3.757,0.695-8.147,0.802-12.809c0.109-4.251,0.051-8.721-0.16-13.117
		c0.077-2.174-0.018-3.918-0.241-5.021c-0.037-0.165-0.074-0.303-0.11-0.427c-0.196-2.483-0.435-4.909-0.728-7.205
		c-0.981-7.92-2.479-14.379-3.846-17.213c-2.8-5.632-0.875,9.083-0.01,26.094c0.257,4.658,0.43,9.482,0.537,14.107
		c-0.26,1.067-0.54,2.153-0.843,3.248c-1.038,3.896-2.355,7.89-3.736,11.571c-2.391-0.221-4.761-0.44-7.108-0.657
		c0.367-2.155,0.731-4.554,1.088-7.067c1.546-11.314,3.22-24.961,2.141-29.37c-0.441-1.788-1.133-1.225-1.907,0.853
		c0.016-1.358-0.049-2.475-0.188-3.265c-0.889-4.528-1.876,6.408-5.288,18.49c-1.657,6.052-3.923,12.367-6.022,17.364
		c-0.29,0.688-0.573,1.348-0.85,1.983c-0.648-0.059-1.292-0.118-1.936-0.176c3.363-9.511,6.4-20.81,5.779-24.786
		c-0.173-1.105-0.548-1.297-1.066-0.804c0-0.005,0.002-0.01,0.002-0.014c1.032-6.545,0.984-12.047,0.458-14.54
		c-1.178-4.977-1.321,7.305-4.907,20.836c-1.665,6.55-4.13,13.323-6.535,18.739c-1.207-0.109-2.406-0.217-3.598-0.324
		c0.721-2.768,1.51-5.763,2.446-8.846c2.408-8.227,5.629-17.11,8.742-24.591c3.062-7.503,5.949-13.635,6.777-16.778
		c0.816-3.159-0.959-1.551-4.008,2.912c-3.01,4.471-7.078,11.913-10.369,20.316c-1.93,4.805-3.58,9.905-4.91,14.817
		c0.449-2.759,0.563-5.01,0.335-6.257c-0.676-3.396-2.307,4.365-5.127,13.006c-0.501,1.567-1.043,3.162-1.599,4.734
		c-1.02-0.09-2.035-0.18-3.043-0.268c0.131-0.474,0.262-0.951,0.395-1.433c1.677-6.131,3.526-12.88,5.026-18.696
		c1.484-5.82,2.598-10.719,2.511-13.204c-0.123-4.987-4.957,5.453-8.667,18.135c-1.451,4.904-2.72,10.118-3.683,14.812
		c-1.812-0.157-3.606-0.312-5.375-0.463c3.684-14.148,7.602-32.022,7.57-37.469c-0.033-5.788-4.139,9.635-7.877,25.549
		c0.557-4.331,0.998-8.625,1.272-12.577c0.537-7.563,0.492-13.87-0.202-16.806c-1.42-5.86-3.101,8.229-5.208,24.399
		c-0.716,5.435-1.462,11.098-2.153,16.345c-1.5-0.125-2.979-0.247-4.445-0.367c0.745-2.807,1.507-5.96,2.221-9.295
		c1.572-7.29,2.881-15.404,3.602-22.372c0.739-6.967,0.914-12.779,0.536-15.467c-0.801-5.368-2.204,7.678-4.584,22.565
		c-1.168,7.449-2.587,15.362-3.817,21.734c-0.176,0.91-0.346,1.785-0.511,2.627c-0.779-0.063-1.557-0.126-2.326-0.188
		c-0.58-0.046-1.146-0.092-1.722-0.137c0.062-4.693,0.134-9.681,0.14-14.088c1.919-14.027,3.459-28.896,3.016-33.867
		c-0.481-5.384-2.524,6.528-4.532,21.224c-1.285-0.115-2.856,8.055-3.206,17.406c-0.121,2.932-0.117,5.963-0.02,8.872
		c-0.003,0.029-0.006,0.056-0.009,0.084c-2.912-0.232-5.771-0.458-8.606-0.682c0.048-0.638,0.091-1.289,0.127-1.948
		c0.147-2.605,0.191-5.347,0.13-8.048c1.473-7.304,2.683-15.065,3.395-21.867c0.851-7.918,1.062-14.519,0.694-17.563
		c-0.791-6.078-2.18,8.78-4.885,25.708c-0.092,0.59-0.19,1.187-0.285,1.781c-0.527-2.984-1.215-5.347-1.988-6.594
		c-2.233-3.525-1.901,5.572-1.72,16.023c0.05,3.465,0.101,7.073,0.149,10.428c-0.115,0.585-0.228,1.141-0.341,1.709
		c-1.678-0.132-3.348-0.262-5-0.391c-0.059-3.833-0.232-8.154-0.538-12.695c-0.354-5.376-0.905-11.043-1.592-16.549
		c0.327-3.414,0.466-6.143,0.335-7.749c-0.163-1.999-0.63-1.391-1.276,0.92c-0.267-1.765-0.543-3.503-0.835-5.169
		c-1.517-8.76-3.33-15.918-4.829-19.064c-3.039-6.267-0.588,10.191,1.625,29.183c0.374,3.142,0.74,6.352,1.092,9.542
		c-1.146,6.559-2.338,14.122-3.324,20.862c-0.687-0.052-1.376-0.105-2.059-0.157c0.013-3.616-0.084-7.636-0.327-11.841
		c-0.523-9.483-1.818-19.879-3.568-28.625c-1.72-8.753-3.846-15.849-5.492-18.923c-3.36-6.107,0.046,10.17,2.468,29.104
		c1.251,9.467,2.247,19.604,2.878,27.809c0.057,0.746,0.111,1.47,0.164,2.183c-3.106-0.233-6.163-0.459-9.182-0.68
		c0.031-0.189,0.063-0.377,0.094-0.567c1.388-8.429,2.449-17.784,2.924-25.795c0.495-8.01,0.433-14.667-0.058-17.717
		c-1.032-6.091-1.846,8.936-3.756,26.119c-0.154,1.421-0.317,2.858-0.485,4.299c-0.102-2.799-0.302-5.538-0.611-8.078
		c-0.72-6.155-1.997-11.155-3.263-13.322c-2.595-4.291-1.195,7.034-0.881,20.111c0.143,4.835,0.132,9.911,0.029,14.516
		c-3.26-0.233-6.472-0.457-9.641-0.673c-0.035-4.308-0.15-8.775-0.349-12.865c0.378-5.931,0.314-11.039-0.491-13.332
		c-0.322-0.918-0.661-1.146-1.005-0.832c-0.033-0.119-0.065-0.237-0.099-0.343c-0.735-2.339-1.141-0.159-1.322,4.307
		c-1.164,5.199-2.265,14.468-2.969,22.646c-2.658-0.175-5.285-0.343-7.886-0.506c0.38-2.544,0.786-5.234,1.22-8.009
		c1.422-9.219,3.197-19.334,4.789-27.984c1.563-8.656,2.901-15.859,2.913-19.342c0.004-3.488-1.306-1.276-3.201,4.185
		c-1.874,5.461-4.209,14.197-6.025,23.68c-1.585,8.086-2.779,16.695-3.505,24.175c-2.69-17.459-6.764-39.21-9.121-45.286
		c-3.217-8.291,2.408,25.557,6.669,48.199c-0.38-0.022-0.764-0.046-1.143-0.068c-1.049-8.513-2.71-16.692-4.152-19.434
		c-1.864-3.567-0.686,5.834,0.622,16.646c0.108,0.861,0.216,1.731,0.324,2.604c-1.736-0.099-3.461-0.195-5.175-0.288
		c-0.206-3.258-0.362-6.529-0.479-9.509c-0.219-4.83-0.371-8.905-1.058-10.895c-0.694-1.996-1.522-0.733-2.275,2.444
		c-0.732,3.171-1.26,8.255-1.133,13.69c0.021,1.328,0.082,2.675,0.176,4.019c-1.813-0.093-3.617-0.182-5.409-0.268
		c-0.039-0.959-0.075-1.925-0.095-2.909c-0.285-9.147,0.152-19.229,1.027-27.835c0.809-8.614,1.968-15.756,1.943-19.207
		c-0.044-3.465-1.349-1.275-3.105,4.227c-1.71,5.5-3.585,14.376-4.264,23.999c-0.576,7.187-0.469,14.752,0.089,21.522
		c-2.886-0.128-5.748-0.246-8.591-0.354c-0.353-16.017-1.833-39.285-3.6-45.438c-2.265-7.888-0.634,25.285,0.858,45.337
		c-1.922-0.069-3.835-0.132-5.741-0.191c-1.29-16.724-4.374-42.525-6.606-49.087c-2.834-8.336,1.171,28.378,3.942,49.007
		c-57.251-1.643-108.819,1.185-192.65,10.857c-138.229,15.949-777.982,17.814-1057.098,1.865
		c-120.183-6.868-218.81-6.68-292.164-4.239c0.115-1.513,0.252-3.081,0.441-4.688c0.71-6.788,2.064-14.191,3.59-20.482
		c1.472-6.304,3.05-11.512,3.249-14.183c0.187-2.687-1.194-1.3-3.267,2.561c-2.032,3.862-4.521,10.284-6.066,17.426
		c-1.484,6.524-2.145,13.584-2.137,19.51c-2.767,0.096-5.496,0.196-8.189,0.299c0.274-2.668,0.481-5.612,0.583-8.695
		c0.264-7.376-0.108-15.515-1.034-22.384c-0.899-6.875-2.309-12.467-3.634-14.902c-2.711-4.831-1.023,7.898-0.306,22.611
		c0.393,7.361,0.536,15.228,0.513,21.592c-0.003,0.661-0.007,1.302-0.011,1.928c-3.495,0.139-6.929,0.282-10.295,0.429
		c0.047-1.491,0.072-3.011,0.032-4.574c-0.114-8.546-1.504-17.917-3.729-25.602c-2.163-7.711-5.047-13.708-7.027-16.124
		c-1.961-2.424-1.692-0.132-0.369,4.703c1.284,4.853,3.39,12.396,4.747,20.676c1.228,7.028,1.888,14.552,2.083,21.112
		c-3.709,0.169-7.335,0.343-10.879,0.521c-0.151-1.539-0.335-3.126-0.559-4.747c-0.597-4.438-1.5-9.093-2.599-13.563
		c0.022-5.893-0.185-11.855-0.617-17.172c-0.607-7.775-1.642-14.161-2.58-17.013c-1.833-5.385-0.586,7.367-0.137,22.974
		c-2.091-5.888-4.362-10.469-6.013-12.45c-3.74-4.346,0.834,8.192,4.356,23.077c0.646,2.658,1.254,5.392,1.82,8.106
		c-0.035,2.96-0.095,5.807-0.175,8.422c-0.029,0.933-0.059,1.836-0.09,2.707c-1.706,0.091-3.393,0.182-5.057,0.274
		c0.93-5.069,1.498-10.542,1.555-15.302c0.084-5.303-0.433-9.7-1.353-11.708c-1.889-3.985-2.356,5.757-3.597,16.876
		c-0.369,3.449-0.815,7.03-1.272,10.397c-0.08,0.005-0.159,0.009-0.239,0.014c0.025-0.414,0.052-0.822,0.074-1.241
		c0.418-7.662,0.267-16.126-0.398-23.297c-0.636-7.177-1.742-13.05-2.713-15.655c-2.011-5.185-0.282,8.156,0.082,23.587
		c0.159,5.591,0.132,11.448-0.008,16.781c-1.885,0.111-3.745,0.223-5.573,0.336c0.119-1.043,0.238-2.105,0.357-3.182
		c0.885-8.088,1.771-17.002,2.366-24.647c0.584-7.645,0.862-14.025,0.346-17.046c-0.398-2.401-1.093-1.6-1.9,1.268
		c-0.023-2.899-1.313-1.025-3.179,3.636c-1.777,4.492-3.965,11.591-5.707,19.416c-0.303-2.76-0.648-5.512-1.024-8.203
		c0.166-1.335,0.327-2.654,0.477-3.93c0.903-7.809,1.45-14.332,1.061-17.443c-0.471-3.914-2.023,0.353-3.738,8.266
		c-1.1-5.486-2.243-9.828-3.146-12.024c-2.096-4.986-0.341,5.857,1.555,20.167c-0.496,2.786-0.983,5.756-1.438,8.809
		c-1.276,8.47-2.305,17.54-2.918,24.869c-0.033,0.395-0.064,0.781-0.095,1.165c-0.913,0.064-1.816,0.128-2.71,0.193
		c-0.187-1.652-0.4-3.383-0.644-5.189c-0.005-0.096-0.004-0.188-0.01-0.284c-0.363-8.522-1.972-17.835-4.337-25.464
		c-0.408-1.355-0.838-2.653-1.278-3.891c-0.308-1.253-0.62-2.487-0.935-3.682c-0.782-2.993-1.577-5.777-2.344-8.256
		c0.024-3.725-0.008-6.691-0.201-8.481c-0.284-2.919-0.916-1.202-1.539,3.246c-0.671-1.858-1.286-3.356-1.803-4.381
		c-1.894-3.679-0.904,1.135,1.038,9.712c-0.069-0.088-0.14-0.182-0.208-0.262c-1.989-2.399-1.697-0.112-0.31,4.706
		c0.078,0.278,0.159,0.566,0.241,0.861c-0.273,3.996-0.475,8.497-0.54,13.172c-0.118,6.764,0.057,13.858,0.409,20.226
		c-0.762-2.848-1.702-5.596-2.777-8.043c-0.124-0.29-0.25-0.573-0.377-0.854c-0.43-1.737-0.895-3.423-1.393-5.013
		c-1.787-5.83-3.909-10.426-5.318-12.327c-2.002-2.598-0.615,1.639,1.324,8.689c-0.357-0.372-0.697-0.682-1.011-0.915
		c-1.826-1.375-1.604,0.278-0.393,3.528c1.184,3.27,3.202,8.282,4.752,13.872c0.465,1.606,0.884,3.259,1.265,4.917
		c0.272,1.826,0.507,3.606,0.708,5.311c-2.885,0.233-5.645,0.464-8.275,0.69c-0.067-2.63-0.143-5.46-0.214-8.398
		c-0.209-8.217-0.356-17.264-0.481-25c-0.141-7.735-0.283-14.161-0.771-17.123c-0.936-5.94-2.321,8.694-2.224,25.588
		c0.003,0.993,0.013,1.994,0.026,2.999c-0.598-2.964-1.29-5.848-2.057-8.497c-0.118-0.415-0.237-0.823-0.357-1.226
		c-1.064-10.204-2.177-19.329-3.207-22.882c-1.18-4.04-1.301,2.489-0.697,12.576c-0.37-0.731-0.718-1.344-1.03-1.808
		c-1.566-2.244-1.067,0.082,0.148,4.845c-0.339,0.577-0.712,1.289-1.113,2.129c-1.715,3.653-3.762,9.665-5.071,16.288
		c-1.18,5.71-1.79,11.842-1.91,17.121c-0.041-0.257-0.082-0.507-0.123-0.766c-1.079-6.723-2.119-14.148-2.955-20.51
		c-0.857-6.36-1.539-11.657-2.27-14.071c-1.413-4.859-1.653,7.406,0.096,21.384c0.804,6.627,2.06,13.592,3.344,19.309
		c-0.355,0.036-0.702,0.072-1.047,0.108c-0.657-2.471-1.413-5.181-2.233-8.005c-0.874-3.025-1.831-6.183-2.809-9.309
		c-0.356-5.255-0.596-9.677-1.319-11.808c-0.651-1.899-1.355-1.005-1.983,1.646c-0.093-0.275-0.188-0.56-0.28-0.831
		c-1.013-3.081-1.747-5.915-1.976-8.336c-0.253-2.417-0.027-4.397,0.163-5.694c0.228-1.283,0.087-1.599-0.421-1.007
		c-0.518,0.565-1.376,2.12-1.745,4.45c-0.417,2.325-0.227,5.314,0.449,8.453c0.678,3.166,1.759,6.439,2.785,9.856
		c0.027,0.088,0.055,0.177,0.082,0.265c-0.174,2.713-0.217,5.783-0.052,8.971c0.181,4.095,0.707,8.338,1.408,12.2
		c-6.305,0.706-9.522,1.143-9.522,1.143V2000h3000v-502.263C3000,1497.737,2995.684,1490.625,2990.843,1489.803z M80.904,1467.142
		c-0.191,1.52-0.375,3.076-0.549,4.655c-0.764,6.816-1.343,14.004-1.703,20.331c-0.629,0.04-1.256,0.081-1.878,0.121
		c-0.025-0.88-0.055-1.786-0.093-2.722C77.918,1482.161,79.456,1474.195,80.904,1467.142z M71.359,1484.325
		c0.418-2.827,0.839-5.755,1.25-8.695c0.229,2.087,0.447,4.141,0.651,6.141c-0.612,3.707-1.108,7.372-1.482,10.807
		c-0.576,0.039-1.141,0.078-1.71,0.116C70.491,1490.074,70.924,1487.254,71.359,1484.325z M53.731,1482.537
		c-0.149-6.874-0.174-14.288-0.121-21.141c0.797,3.136,1.593,6.566,2.262,10.135c1.449,7.334,2.331,15.22,2.701,21.983
		c-1.544,0.115-3.056,0.23-4.542,0.344C53.925,1490.423,53.81,1486.578,53.731,1482.537z M25.054,1488.2
		c0.717-6.304,1.876-13.197,3.077-19.091c0.595-3.03,1.185-5.792,1.617-8.112c0.101,0.398,0.202,0.804,0.305,1.217
		c0.071,0.837,0.145,1.681,0.223,2.532c0.43,4.882,0.983,9.946,1.566,14.697c-0.084,4.737,0.26,11.056,0.743,16.208
		c-2.987,0.271-5.777,0.534-8.363,0.786C24.447,1493.931,24.706,1491.137,25.054,1488.2z M13.881,1496.849
		c-0.127-1.082-0.246-2.189-0.36-3.305c0.445,1.342,0.877,2.63,1.29,3.848c-0.288,0.031-0.575,0.061-0.856,0.091
		C13.931,1497.271,13.905,1497.064,13.881,1496.849z M1791.295,1476.682c0.232,2.266,0.451,4.451,0.653,6.512
		c0.101,1.031,0.198,2.03,0.292,2.994c-0.851-0.066-1.698-0.131-2.542-0.196C1790.245,1482.983,1790.786,1479.832,1791.295,1476.682
		z M2255.14,1515.868c-0.037,1.113-0.075,2.197-0.115,3.259c-0.091,0-0.182-0.001-0.273-0.001
		C2254.882,1518.079,2255.012,1516.998,2255.14,1515.868z M2173.067,1502.712c0.597-4.259,1.353-8.747,2.167-13.103
		c0.588,2.958,1.25,6.192,1.934,9.528c1.047,5.028,2.128,10.284,3.132,15.128c-0.016,0.985-0.015,1.951-0.006,2.901
		c-2.994-0.132-5.999-0.271-9.013-0.414C2171.754,1512.939,2172.301,1508.013,2173.067,1502.712z M2102.22,1511.663
		c0.497-1.481,0.959-3.014,1.393-4.566c-0.108,1.851-0.228,3.634-0.354,5.276c-0.01,0.128-0.02,0.252-0.029,0.379
		c-0.449-0.031-0.898-0.061-1.347-0.092C2101.997,1512.329,2102.11,1511.998,2102.22,1511.663z M2033.816,1497.589
		c0.608-4.725,1.054-9.792,1.296-14.631c0.103,2.21,0.209,4.545,0.303,6.936c0.249,5.974,0.416,12.276,0.512,17.76
		c-1.218-0.1-2.434-0.2-3.649-0.3C2032.833,1504.452,2033.365,1501.121,2033.816,1497.589z M1891.842,1490.367
		c0,1.541-0.005,2.998-0.01,4.363c-0.526-0.049-1.052-0.098-1.576-0.146C1890.812,1493.209,1891.347,1491.804,1891.842,1490.367z
		 M1874.826,1486.195c0.881-2.105,1.7-4.325,2.438-6.576c-0.471,4.2-0.809,8.373-0.987,11.946c-0.029,0.592-0.054,1.166-0.076,1.722
		c-1.504-0.138-2.998-0.275-4.483-0.411C1872.765,1490.856,1873.829,1488.608,1874.826,1486.195z M1853.909,1487.599
		c-0.153,0.749-0.306,1.497-0.438,2.217c-0.086,0.469-0.168,0.932-0.247,1.387c-0.171-0.015-0.341-0.03-0.511-0.045
		C1853.14,1489.976,1853.545,1488.784,1853.909,1487.599z M2593.992,1475.56c0.039,0.991,0.079,1.941,0.119,2.851
		c-0.32,0.04-0.64,0.081-0.96,0.121C2593.438,1477.554,2593.719,1476.564,2593.992,1475.56z M2523.688,1476.785
		c0.279-4.837,0.362-9.972,0.258-14.948c0.191,7.874,0.689,17.845,1.216,25.839c-0.824,0.118-1.645,0.236-2.468,0.354
		C2523.111,1484.669,2523.463,1480.834,2523.688,1476.785z M2503.162,1483.064c0.186-1.186,0.359-2.397,0.525-3.617
		c0.201,3.85,0.486,7.658,0.823,11.223c-0.925,0.136-1.853,0.272-2.776,0.408
		C2502.237,1488.597,2502.723,1485.892,2503.162,1483.064z M2439.194,1495.823c0.281-6.928,0.759-14.547,1.237-21.064
		c0.184-2.619,0.361-5.056,0.495-7.206c1.433,8.784,2.791,18.044,3.825,25.599c0.323,2.362,0.618,4.55,0.888,6.508
		c-2.224,0.351-4.437,0.702-6.635,1.052C2439.06,1499.139,2439.122,1497.502,2439.194,1495.823z M2395.623,1485.666
		c0.801,6.092,1.607,12.231,2.285,17.386c0.204,1.507,0.399,2.926,0.585,4.239c-1.437,0.238-2.862,0.475-4.281,0.71
		C2394.764,1501.212,2395.27,1493.271,2395.623,1485.666z M2939.843,1473.622c0.1,1.029,0.209,2.037,0.334,2.998
		c0.249,1.887,0.529,3.625,0.815,5.179c-0.696-0.106-1.397-0.213-2.102-0.32C2939.214,1478.986,2939.534,1476.347,2939.843,1473.622
		z M2923.063,1477.844c-0.021,0.432-0.035,0.838-0.053,1.263c-0.052-0.008-0.104-0.015-0.156-0.023
		C2922.923,1478.67,2922.991,1478.264,2923.063,1477.844z M2898.321,1470.056c0.088-0.841,0.171-1.692,0.253-2.547
		c0.013-0.032,0.027-0.064,0.041-0.097c4.465-10.566,8.641-22.396,12.669-32.275c0.059-0.147,0.117-0.29,0.176-0.437
		c-0.535,4.434-1.037,9.435-1.452,14.632c-0.766,9.405-1.234,19.393-1.401,27.69c-3.564-0.508-7.193-1.019-10.882-1.531
		C2897.933,1473.732,2898.133,1471.917,2898.321,1470.056z M2878.864,1462.625c1.024-3.097,2.119-6.299,3.238-9.497
		c-0.554,6.593-0.908,13.21-1.048,18.801c-0.011,0.437-0.021,0.866-0.029,1.29c-1.782-0.237-3.573-0.475-5.374-0.711
		C2876.624,1469.458,2877.701,1466.111,2878.864,1462.625z M2864.825,1463.343c0.09-0.349,0.188-0.705,0.281-1.058
		c-0.169,3.058-0.294,6.017-0.377,8.81c-0.565-0.072-1.129-0.144-1.696-0.216
		C2863.541,1468.552,2864.128,1466.004,2864.825,1463.343z M2844.544,1460.973c0.072,2.654,0.177,5.236,0.307,7.667
		c-0.745-0.089-1.492-0.178-2.239-0.266C2843.234,1465.913,2843.881,1463.431,2844.544,1460.973z"/>
	<path style="fill:#06193F;" d="M2335.816,1271.779c0,0-5.698-9.497-14.72-9.972c-9.022-0.475-14.72,6.648-14.72,6.648l8.547,6.648
		c0,0-14.245-5.223-40.362-3.324s-102.566,14.72-117.287,17.569c-14.72,2.849-30.39-2.374-48.909-1.899
		c-18.519,0.475-32.764-5.223-48.434-5.223c-15.67,0-15.67,0.475-24.217-3.324c-8.547-3.799-12.821-9.972-21.843-8.072
		c-9.022,1.899-8.547,13.296-8.547,13.296s-9.972-0.475-14.245,9.972c-4.274,10.447-3.324,49.384-1.425,74.551
		c1.899,25.167,16.145,59.831,12.821,69.327c-3.324,9.497-10.447,14.245-12.821,26.117c-2.374,11.871-4.748,77.4-1.899,82.623
		c2.849,5.223,14.245,1.899,14.245,1.899s10.447,2.374,16.62,1.899c6.173-0.475,6.173-0.475,6.173-0.475s-9.972-29.915-8.547-45.585
		c1.425-15.67,13.296-45.585,16.62-53.658c3.324-8.072,6.173-19.943,10.921-23.267c4.748-3.324,1.899,4.748,8.072,4.748
		c6.173,0,0.475-7.123,6.648-8.072c6.173-0.95,3.324,7.598,9.022,7.598c5.698,0-1.425-6.173,5.698-4.748
		c7.123,1.425,38.937,25.642,56.981,27.066c18.044,1.424,65.529-7.598,75.026-11.871c9.497-4.274,11.871-7.598,18.519-4.749
		c6.648,2.849,19.944,8.547,19.944,8.547s3.324,25.642,7.123,38.462s8.073,11.396,8.547,19.469
		c0.475,8.072-0.475,38.937,4.273,42.736c4.749,3.799,16.62,0.95,16.62,0.95s4.749,1.425,8.072-1.425
		c-1.899-1.425-9.022-32.289-8.547-39.412s3.799-12.821,4.274-19.943s1.425-32.764,1.425-32.764s16.619-6.173,23.267-12.821
		c6.648-6.648,3.324-14.72,8.072-18.994c4.749-4.274,14.245-12.346,18.519-25.642c4.274-13.296,6.648-27.541,11.396-32.764
		c4.749-5.223,10.447-11.396,10.447-11.396s6.173,0.633,10.288-1.266c2.216,0.317,2.532,3.799,6.648,3.482
		c4.115-0.317,5.698-1.583,5.698-1.583s3.482,1.899,6.964,0.95s4.749-3.799,4.749-3.799s3.482,2.216,6.015-0.95
		c2.533-3.166-1.266-6.015-0.316-8.864s0.316-9.813-1.266-12.029c-1.583-2.216-1.583-2.216-1.583-2.216s-3.482-7.914-0.317-15.195
		c3.166-7.281,6.331-12.662,6.648-17.094c2.532,0.633,3.166,2.216,9.497-0.95s18.044-13.296,18.994-17.411
		c0.95-4.115-8.864-10.447-17.728-11.08c-8.864-0.633-12.662,6.331-16.778,5.065c-4.115-1.266-10.763-16.778-18.994-18.361
		c-8.231-1.583-9.497,0.95-14.878,0.95s-8.231-0.95-13.296,2.532s-6.015,8.547-6.015,8.547S2335.816,1263.865,2335.816,1271.779z"/>
	<path style="fill:#06193F;" d="M2602.009,1350.48c1.73-3.304,4.436-6.361,6.964-8.765c2.714-2.579,5.789-4.444,9.28-4.768
		c3.201-0.297,6.177,1.026,8.969,2.758c1.903-3.504,4.147-6.69,6.691-9.519c-1.587-0.672-3.122-1.524-4.719-2.109
		c-1.829-0.671-3.454-1.676-4.942-2.939c-2.095-1.348-4.069-2.997-5.9-4.927c-3.158-3.331,0.979-8.727,4.267-6.464
		c0.358-0.133,0.542,0.222,0.777,0.691c3.697,3.835,8.449,6.231,13.338,6.488c0.616,0.032,1.229,0.041,1.839,0.044
		c1.007-0.543,2.026-1.013,3.166-0.828c0.739,0.12,1.297-0.325,1.804-0.722c0.88-0.689,1.642-1.599,2.456-2.411
		c1.625-1.62,3.343-2.958,5.586-2.839c0.368,0.02,0.744-0.2,1.117-0.306c0.341-0.097,0.75,0.44,1.042-0.166
		c0.017-0.036,0.13-0.005,0.198-0.005c0.136,0,0.322-0.07,0.402,0.011c0.759,0.769,1.659,0.477,2.5,0.464
		c1.132-0.017,2.147,0.502,3.21,0.811c2.053,0.598,3.891,1.797,5.74,2.97c0.896,0.568,1.775,1.194,2.709,1.652
		c0.534,0.261,1.115,0.502,1.682,0.66c0.127,0.022,0.258,0.055,0.391,0.096c0.23,0.048,0.455,0.078,0.67,0.088
		c0.269,0.011,0.538,0.135,0.808,0.277c2.811-1.294,5.556-2.842,8.209-4.469c1.776-1.392,3.577-2.654,5.652-3.494
		c3.728-1.51,6.112,5.394,2.672,7.646c-0.144,0.094-0.29,0.189-0.435,0.283c-0.359,0.825-0.879,1.533-1.541,2.098
		c-1.856,1.584-3.919,2.78-6.057,3.8c-1.423,0.679-2.954,1.179-4.213,2.274c1.098,2.496,2.651,4.357,4.335,6.057
		c6.105-6.037,14.357-8.604,22.27-6.576c5.002,1.282,11.873,5.384,9.958,12.937c-0.223,0.878-0.508,1.74-0.841,2.585
		c1.297-0.012,2.58,0.18,3.876,0.379c2.985,0.459,6.026,0.63,9.036,0.531c3.244-0.107,6.448,0.365,9.656,0.648
		c1.438,0.127,2.898,0.242,4.338,0.438c1.09,0.149,2.191,0.357,3.267,0.618c1.131,0.275,2.204,0.802,3.395,0.861
		c0.894,0.044,1.81,0.325,2.67,0.575c1.12,0.326,2.259,0.54,3.376,0.871c1.116,0.33,2.235,0.644,3.346,0.992
		c1.416,0.445,2.841,0.857,4.234,1.388c4.767,1.818,9.539,3.62,14.275,5.551c2.645,1.078,5.401,1.697,8,2.941
		c1.219-0.18,2.2,0.885,3.348,0.967c1.763,0.127,3.37,1.36,5.188,1.013c1.161,0.839,2.511,0.679,3.766,0.921
		c1.156,0.223,2.287,0.906,3.508,0.559c0.458,0.657,1.092,0.419,1.672,0.509c0.633,0.098,1.248,0.371,1.881,0.466
		c0.97,0.146,1.926-0.055,2.927,0.432c0.859,0.418,1.977-0.172,2.877,0.57c1.81-0.209,3.578,0.44,5.36,0.447
		c2.62,0.011,5.22,0.194,7.816,0.555c0.499,0.069,0.974,0.367,1.472,0.467c0.523,0.105,1.086-0.009,1.588,0.163
		c1.118,0.383,2.198,0.878,3.396,0.868c0.489-0.004,0.971,0.365,1.47,0.449c0.532,0.09,1.166-0.164,1.607,0.097
		c1.569,0.93,3.197,0.134,4.775,0.414c0.805-1.129,1.993-0.146,2.997-0.853c0.885-0.623,2.187-0.31,3.242-0.675
		c0.834-0.288,1.732-0.206,2.473-0.544c0.845-0.385,1.733-0.48,2.564-0.874c0.883-0.419,1.85-0.48,2.755-0.923
		c0.82-0.4,1.924-0.115,2.631-0.651c0.904-0.685,2.029,0.095,2.77-0.916c1.692-0.107,3.328-0.636,4.991-0.947
		c1.021-0.191,2.125-0.245,3.102,0.453c2.587-0.049,4.872,1.228,7.127,2.501c1.567,0.885,2.993,2.079,4.408,3.33
		c1.436,1.27,2.803,2.671,3.766,4.331c1.244,2.144,2.712,4.043,4.018,6.107c0.986,1.557,2.237,2.889,3.458,4.202
		c0.763,0.82,1.62,1.625,2.554,2.078c2.108,1.021,4.19,2.147,6.314,3.075c2.796,1.222,5.503,2.679,8.231,4.07
		c1.917,0.978,3.87,1.87,5.789,2.823c2.389,1.186,4.624,2.625,6.65,4.452c1.713,1.544,3.488,2.907,5.39,4.032
		c1.812,1.072,3.63,2.208,5.549,2.9c1.072,0.387,1.923,1.184,2.952,1.565c2.141,0.792,4.108,2.054,5.947,3.539
		c1.841,1.487,3.643,3.094,5.28,4.89c3.173,3.482,6.031,7.269,7.731,12.18c1.022,2.954,1.92,6.392,1.92,9.172v3.954
		c0,0.906,0.206,1.906-0.043,2.698c-0.499,1.587-0.582,3.28-1.13,4.87c-0.602,1.746-0.957,3.61-1.594,5.382
		c-0.635,1.766-1.438,3.4-2.154,5.099c-0.431,1.023-0.812,2.116-1.4,2.998c-1.581,2.368-3.183,4.731-4.925,6.924
		c-1.88,2.366-3.664,4.85-5.736,6.998c-1.731,1.794-3.347,3.749-5.068,5.558c-0.07,0.073-0.148,0.136-0.222,0.205
		c-8.798,1.464-17.737,1.675-26.601,3.06c-6.266,0.979-12.378,2.685-18.236,5.576c-6.005,2.964-11.918,4.167-18.39,3.417
		c-4.924-0.571-9.776-1.832-14.719-2.22c-5.579-0.438-11.156,0.157-16.673,1.149c-6.213,1.118-12.367,2.511-18.668,2.585
		c-6.145,0.072-12.277-0.517-18.409-0.914c-6.071-0.393-12.193-0.645-18.251,0.139c-3.455,0.447-6.499,1.794-9.456,3.675
		c-2.326,3.668-5.018,6.949-8.448,9.158c-6.034,3.885-12.281,3.047-18.186-0.699c-2.649-1.681-5.122-3.742-7.811-5.333
		c-3.061-1.812-6.424-2.836-9.751-3.655c-3.083-0.759-6.196-1.321-9.291-1.976c-2.18,0.411-4.356,0.857-6.545,1.193
		c-0.545-0.262-1.136-0.159-1.711-0.161c-0.604-0.002-1.304-0.168-1.789,0.137c-0.543,0.342-0.95,0.548-1.418,0.054
		c-0.657-0.693-1.008,0.36-1.609,0.36c-2.813,0-5.643-0.4-8.441,0.404c-0.966,0.278-1.936-0.24-2.904-0.412
		c-1.27-0.225-2.59,0.009-3.884-0.074c-1.244-0.079-2.481-0.434-3.723-0.446c-1.72-0.017-3.376-0.368-4.979-1.042
		c-0.827-0.348-1.637-0.463-2.499-0.491c-1.178-0.038-2.33-0.028-3.537-0.376c-0.952-0.275-1.94-0.424-2.935-0.498
		c-4.081,1.982-8.814,0.188-11.797-3.708c-1.765-0.682-2.396-2.454-2.192-4.164c-0.252-0.76-0.45-1.554-0.579-2.38
		c-1.411-9.016,2.83-15.874,7.705-21.874c0.015-0.554,0.145-1.146-0.228-1.642c-0.635-0.845,0.285-1.423,0.275-2.19
		c-0.027-2.072,0.758-3.87,1.451-5.691c0.473-1.246,1.081-2.453,1.361-3.76c0.309-1.443,0.457-2.988,0.409-4.476
		c-0.051-1.554,0.377-2.99,0.437-4.493c0.059-1.479,0.091-2.972-0.009-4.445c-0.096-1.419,0.192-2.804-0.282-4.295
		c-0.411-1.292-0.098-2.919-0.105-4.398c-0.001-0.165,0.059-0.394-0.009-0.484c-0.742-0.987-0.262-2.18-0.398-3.265
		c-0.147-1.165-0.4-2.337-0.382-3.501c0.024-1.566-0.445-2.725-1.344-3.805c-0.72-0.866-1.289-1.496-2.356-0.635
		c-0.551,0.445-1.407,0.325-1.983,0.744c-0.734,0.534-1.453,0.229-2.162,0.24c-0.448,0.007-0.818-0.469-0.812-1.169
		c0.001-0.088-0.314-0.247-0.488-0.257c-0.545-0.034-1.092-0.018-1.638-0.011c-1.206,0.015-2.199-0.53-3.272-1.233
		c-1.463-0.958-1.975-2.621-2.732-4.098c-0.355-0.694-0.615-1.267-1.307-1.078c-1.106,0.302-2.054-0.493-3.109-0.549
		c-0.324-0.017-0.77-0.397-0.917-0.756c-0.249-0.606-0.377-1.32-0.428-2.002c-0.224-2.998,0.208-5.961,0.405-8.936
		c0.014-0.217,0.141-0.421,0.205-0.635c0.299-1.004,0.419-2.048-0.054-2.986c-0.979-1.942-0.832-4.336-1.797-6.271
		c0.034-2.791-0.76-5.462-0.818-8.239c-0.007-0.329,0.115-0.819-0.021-0.961c-0.64-0.672-0.286-1.528-0.394-2.293
		c-0.119-0.842-0.367-1.673-0.386-2.515c-0.046-2.059-0.705-3.938-1.069-5.901c-0.528-2.85-1.983-5.411-1.818-8.479
		c-0.318-0.137-0.352-0.501-0.373-0.875c-3.037-0.342-6.099,0.379-8.995,2.007c-1.122,1.122-2.347,2.027-3.741,2.582
		c-2.539,1.839-5.197,3.305-8.267,3.224c-3.359-0.089-6.54-1.679-9.052-4.343C2602.142,1358.562,2600.024,1354.272,2602.009,1350.48
		z"/>
</g>
</svg>
